<svg width="24" height="24" viewBox="0 0 24 24" fill="none" xmlns="http://www.w3.org/2000/svg">
<path d="M5.88889 23H18.1111C19.4077 23 20.6512 22.4849 21.5681 21.5681C22.4849 20.6512 23 19.4077 23 18.1111V3.44444M16.8889 18.1111H2.22222C1.89807 18.1111 1.58719 17.9823 1.35798 17.7531C1.12877 17.5239 1 17.213 1 16.8889V2.22222C1 1.89807 1.12877 1.58719 1.35798 1.35798C1.58719 1.12877 1.89807 1 2.22222 1H16.8889C17.213 1 17.5239 1.12877 17.7531 1.35798C17.9823 1.58719 18.1111 1.89807 18.1111 2.22222V16.8889C18.1111 17.213 17.9823 17.5239 17.7531 17.7531C17.5239 17.9823 17.213 18.1111 16.8889 18.1111Z" stroke="#152A60" stroke-linecap="round" stroke-linejoin="round"/>
<path d="M5 10.4L8.75 14L15 8" stroke="#152A60" stroke-linecap="round" stroke-linejoin="round"/>
</svg>
