<svg width="227" height="72" viewBox="0 0 227 72" fill="none" xmlns="http://www.w3.org/2000/svg">
<path d="M18.0303 6.39618C17.1683 7.48189 16.5217 8.71237 16.5217 9.29141C16.5217 9.79808 16.3062 10.8114 16.0189 11.5352C15.6597 12.6209 15.7315 12.6933 16.5936 12.0419C17.1683 11.6076 18.605 10.8838 19.7543 10.4495C21.6221 9.79808 21.6939 9.65332 20.329 9.65332C19.3952 9.58094 18.6768 9.50856 18.6768 9.3638C18.6768 9.29141 18.9641 8.13332 19.3233 6.83046C20.1853 4.0076 19.9698 3.93522 18.0303 6.39618Z" fill="#152A60"/>
<path d="M54.5954 6.83049C55.0264 8.13335 55.3137 9.29144 55.3137 9.36382C55.3137 9.50858 54.5954 9.58096 53.7333 9.65335C52.2966 9.65335 52.3685 9.79811 54.2362 10.4495C55.4574 10.8838 56.8223 11.5352 57.3251 11.9695C59.2647 13.5619 57.0378 6.97525 55.0264 5.31049C54.0925 4.5143 54.0207 4.65906 54.5954 6.83049Z" fill="#152A60"/>
<path d="M35.5585 10.2324C34.5528 11.4629 34.481 11.9695 35.1275 12.7657C36.205 14.0686 35.4867 16.8191 34.05 16.8191C32.9006 16.8191 32.6851 17.9771 33.7626 18.6286C35.1993 19.4972 34.4091 20.2933 31.4639 20.8C29.7398 21.0895 27.7284 21.3791 26.9383 21.4514C25.9326 21.5238 25.5734 21.9581 25.7171 22.9714C25.8607 23.7676 26.2199 24.4914 26.5072 24.6362C26.7228 24.7086 26.9383 26.1562 26.7946 27.8933L26.6509 30.9333L27.1538 28.0381C27.8721 24.1295 28.5905 23.0438 29.8117 24.0571C30.3145 24.4914 31.5357 24.6362 32.5414 24.4191C33.619 24.1295 34.5528 24.2743 34.912 24.8533C35.4867 25.8667 35.4148 38.2438 34.7683 41.9352L34.3373 44.3238H27.5848H20.7604L21.9098 46.4229C22.7718 48.16 23.6338 48.6667 26.2917 49.101C28.0876 49.3181 30.8174 49.3905 32.3978 49.1733C34.8402 48.8838 35.1993 48.9562 35.1993 50.2591C35.1993 51.0552 34.6246 51.8514 33.7626 52.0686C32.9724 52.2857 32.5414 52.72 32.7569 53.0819C32.9724 53.4438 32.6133 53.7333 31.9667 53.7333C31.3202 53.7333 30.961 54.0229 31.2484 54.3848C31.4639 54.7467 30.7455 55.181 29.668 55.3257C28.2313 55.4705 27.5848 55.9771 27.4411 57.2076C27.0819 59.5962 25.5734 59.8857 22.8436 58.221C18.9645 55.76 15.3009 51.4895 13.2177 46.9295C11.7091 43.6 11.2063 41.1391 10.919 35.7105C10.4879 28.9067 10.4879 28.8343 9.62592 31.6571C8.40471 35.4933 8.47655 41.8629 9.69775 45.3371L10.6316 48.0876L8.47655 46.061C7.25535 44.9029 5.38762 42.6591 4.23826 41.1391L2.15503 38.3162V40.7048C2.15503 44.3238 4.81294 49.2457 8.18921 51.7067C9.76959 52.9371 14.0797 55.3257 17.5996 57.0629C32.4696 64.2286 41.6645 64.2286 56.3908 57.0629C67.7408 51.4895 71.7636 47.2914 71.8354 40.7771V38.3162L69.7522 41.1391C68.6028 42.6591 66.7351 44.9029 65.5139 46.061L63.3588 48.0876L64.2927 45.3371C65.5139 41.8629 65.5857 35.4933 64.3645 31.6571C63.5025 28.8343 63.5025 28.9067 63.0715 35.7105C62.7841 41.1391 62.2813 43.6 60.7728 46.9295C58.6895 51.4895 55.0259 55.76 51.1468 58.221C48.4171 59.8857 46.9085 59.5962 46.5493 57.2076C46.4057 55.9771 45.7591 55.4705 44.3224 55.3257C43.2449 55.181 42.5266 54.7467 42.7421 54.3848C43.0294 54.0229 42.6702 53.7333 42.0237 53.7333C41.3772 53.7333 41.018 53.4438 41.2335 53.0819C41.449 52.72 41.018 52.2857 40.2278 52.0686C39.3658 51.8514 38.7911 51.0552 38.7911 50.1143C38.7911 48.6667 39.0066 48.5943 42.1674 49.0286C47.555 49.7524 50.8595 48.8838 52.0807 46.4229L53.23 44.3238H46.4057H39.6531L39.2221 41.9352C38.5756 38.3162 38.5038 25.8667 39.0784 24.8533C39.4376 24.2743 40.3715 24.1295 41.6645 24.4191C42.8139 24.6362 43.8914 24.5638 44.1788 24.1295C44.4661 23.5505 45.0408 23.5505 46.1183 24.1295C47.2677 24.781 47.7705 24.7086 48.2015 23.9848C49.0636 22.5371 48.5607 21.5238 46.9803 21.4514C46.262 21.3791 44.2506 21.0895 42.5984 20.8C39.5813 20.2933 38.7911 19.4972 40.2278 18.6286C41.3053 17.9771 41.0898 16.8191 39.9405 16.8191C38.6474 16.8191 37.9291 13.9238 38.9348 12.621C39.5813 11.8971 39.4376 11.3181 38.3601 10.2324C36.9234 8.78477 36.9234 8.78477 35.5585 10.2324Z" fill="#152A60"/>
<path d="M14.0078 10.3048C13.7923 10.6667 13.505 12.1143 13.3613 13.4172C13.2177 14.7924 12.9303 16.24 12.643 16.7467C11.9965 17.6876 19.3955 13.7791 22.1971 11.6076C24.9268 9.50859 23.1309 10.0876 18.1743 12.9105L13.5768 15.4438L14.0078 13.4172C14.2952 12.3315 14.5825 10.9562 14.798 10.4495C15.0854 9.43621 14.6544 9.29145 14.0078 10.3048Z" fill="#152A60"/>
<path d="M59.8391 12.259L60.1983 15.2266L55.7445 12.7657C50.7879 10.0876 49.1356 9.5809 51.7936 11.6076C54.3078 13.5619 61.8505 17.5428 61.2758 16.6742C61.0603 16.2399 60.7012 14.5752 60.5575 12.9828C60.4138 11.3904 60.1265 9.87042 59.8391 9.65328C59.6236 9.43614 59.6236 10.5942 59.8391 12.259Z" fill="#152A60"/>
<path d="M9.84142 13.9238C9.12307 17.0362 8.90756 21.0895 9.48225 20.7276C10.1288 20.2933 10.9908 14.2857 10.5598 13.0552C10.4161 12.5486 10.0569 12.9105 9.84142 13.9238Z" fill="#152A60"/>
<path d="M63.5029 15.9505C63.7184 17.9771 64.2212 20.2933 64.5804 21.0171C65.0833 21.8857 65.1551 21.0895 64.8678 18.2666C64.6523 16.0952 64.1494 13.779 63.7902 13.2C63.3592 12.4762 63.2155 13.4171 63.5029 15.9505Z" fill="#152A60"/>
<path d="M13.9361 18.9181C10.8471 21.1619 8.18922 23.9124 8.69206 24.3467C8.83574 24.5638 10.919 22.8991 13.2895 20.8C18.0307 16.5295 18.318 15.661 13.9361 18.9181Z" fill="#152A60"/>
<path d="M57.3962 17.7599C59.1921 20.0761 65.6573 25.1428 64.7953 23.6951C63.9333 21.958 61.419 19.6418 58.5456 17.8323C56.606 16.6018 56.4624 16.6018 57.3962 17.7599Z" fill="#152A60"/>
<path d="M6.1778 20.5829C5.9623 21.8857 6.03413 24.1295 6.39331 25.5048C6.96799 27.7486 7.03983 27.5314 7.11166 23.1162C7.1835 17.9048 6.75249 16.8191 6.1778 20.5829Z" fill="#152A60"/>
<path d="M66.951 22.9715C66.951 27.8934 66.951 27.9658 67.6694 24.9258C68.1004 22.8991 68.1004 21.162 67.5976 19.8591C67.0229 18.2667 66.951 18.7734 66.951 22.9715Z" fill="#152A60"/>
<path d="M10.1288 26.5905C8.54841 28.3276 7.18353 30.2095 7.18353 30.7162C7.18353 31.1505 8.40474 30.1371 9.91328 28.4C14.7263 22.7543 14.9418 21.3067 10.1288 26.5905Z" fill="#152A60"/>
<path d="M60.9164 24.4191C61.3475 25.2152 62.856 27.0248 64.2927 28.4C65.9449 29.92 66.6633 30.3543 66.2323 29.4857C65.8013 28.6895 64.2927 26.88 62.856 25.5048C61.2038 23.9848 60.4854 23.5505 60.9164 24.4191Z" fill="#152A60"/>
<path d="M2.87292 26.5905C2.87292 28.2552 6.32103 36 6.82387 35.4933C7.39856 34.9867 5.17166 28.1828 4.02229 26.5905C2.94476 25.1428 2.94476 25.1428 2.87292 26.5905Z" fill="#152A60"/>
<path d="M46.9082 28.038C46.9082 29.6304 47.0519 30.2094 47.1956 29.2685C47.3392 28.3999 47.3392 27.0971 47.1956 26.3732C46.98 25.7218 46.8364 26.4456 46.9082 28.038Z" fill="#152A60"/>
<path d="M69.5367 27.3143C68.8902 28.4724 68.0282 30.7162 67.669 32.2362C67.0225 34.5524 67.0225 34.9143 67.8845 34.1905C69.1775 33.1048 71.3326 27.3143 70.9734 26.0838C70.7579 25.5048 70.1832 26.0114 69.5367 27.3143Z" fill="#152A60"/>
<path d="M177.146 28.038C175.422 28.9066 174.919 28.979 174.416 28.2552C174.129 27.6761 173.841 28.8342 173.913 30.9333V34.5523L174.991 32.019C176.284 29.0514 177.146 28.3999 179.732 28.3999C182.246 28.3999 183.467 30.5714 182.821 33.9733C182.462 35.8552 181.815 36.7238 180.091 37.4476L177.792 38.4609L180.091 38.5333C182.749 38.5333 183.898 40.1257 183.898 43.7447C183.898 46.7123 183.324 47.6533 180.881 48.5942C178.798 49.3904 174.416 48.5942 175.853 47.6533C177.074 46.9295 176.93 44.3238 175.565 43.8171C174.991 43.5999 173.913 43.9618 173.267 44.6133C170.465 47.4361 176.643 50.7657 182.031 49.318C189.501 47.2914 190.435 41.2114 183.611 38.5333L181.6 37.8095L183.97 36.1447C186.844 34.1904 187.634 30.8609 185.55 28.979C183.539 27.1695 179.588 26.7352 177.146 28.038Z" fill="#152A60"/>
<path d="M84.1908 28.9067C84.7655 29.6305 87.1361 33.5391 89.4348 37.6648C93.2421 44.541 93.5294 45.2648 92.6674 46.9296C91.5181 48.9563 90.5124 49.2458 91.0152 47.2915C91.2307 46.4953 90.8715 45.7715 90.225 45.5543C88.501 44.9029 86.9206 45.7715 86.9206 47.2915C86.9206 49.0286 89.6503 50.1867 91.3744 49.3182C92.0927 48.9563 95.038 43.8896 97.9114 38.1715L103.155 27.6763L100.282 27.7486C98.6298 27.821 97.8396 27.9658 98.5579 28.1829C100.641 28.762 100.569 30.4991 98.1269 35.7829L95.7563 40.922L93.1703 36.2896C89.7222 29.9924 89.363 29.1239 90.5842 28.3277C91.2307 27.8934 90.0813 27.6763 87.3516 27.6763C83.4006 27.6763 83.1851 27.7486 84.1908 28.9067Z" fill="#152A60"/>
<path d="M25.9325 33.3219C25.3579 34.6248 25.1424 35.8553 25.286 36.0724C25.5015 36.2895 25.9325 35.4934 26.2199 34.4076L26.7227 32.381L27.6566 34.9143C28.2313 36.2895 28.6623 36.941 28.6623 36.3619C28.6623 35.7829 28.2313 34.3353 27.8003 33.1772L26.8664 31.0057L25.9325 33.3219Z" fill="#152A60"/>
<path d="M46.4057 32.381C46.1902 33.0324 45.9747 33.9733 46.0465 34.4076C46.0465 34.9143 46.3338 34.6248 46.6212 33.8286C47.124 32.6705 47.555 33.3943 48.7762 37.3752C49.5664 40.0533 50.2848 42.4419 50.2848 42.5867C50.2848 42.6591 48.5607 42.9486 46.5493 43.0933L42.7421 43.3105L46.9085 43.4552C49.1354 43.5276 51.0031 43.3105 51.0031 42.9486C51.0031 41.9352 48.2016 33.1772 47.4832 32.1638C47.0522 31.3676 46.8367 31.44 46.4057 32.381Z" fill="#152A60"/>
<path d="M2.15503 33.901C3.01705 36.1448 6.32148 39.981 7.32718 39.981C8.04553 39.981 3.95091 33.901 2.37053 32.5981C1.58034 31.9467 1.50851 32.1638 2.15503 33.901Z" fill="#152A60"/>
<path d="M70.6147 33.6114C68.2441 36.3619 65.9454 39.981 66.5919 39.981C67.6694 39.981 70.9739 36.1448 71.7641 33.9733C72.6979 31.5848 72.4824 31.5124 70.6147 33.6114Z" fill="#152A60"/>
<path d="M144.03 33.3942C140.582 34.8418 139.864 38.5333 142.953 38.5333C144.749 38.5333 145.611 36.7237 144.461 35.3485C143.815 34.6247 143.887 34.2628 144.749 33.9009C146.473 33.2494 147.981 34.1904 148.484 36.2171C149.059 38.678 148.053 40.0533 144.677 41.2113C140.295 42.7313 138.786 45.7713 141.229 48.2323C142.665 49.6799 146.114 49.7523 147.335 48.2323C148.125 47.219 148.269 47.219 148.843 48.2323C149.562 49.5352 153.369 49.8247 154.087 48.6666C154.375 48.2323 154.159 48.0152 153.584 48.0875C152.866 48.2323 152.579 46.7123 152.291 42.0075C152.076 37.7371 151.573 35.3485 150.855 34.6247C149.418 33.3218 145.826 32.6704 144.03 33.3942ZM148.7 43.0933C148.7 46.4228 147.047 48.5942 145.323 47.5085C143.384 46.278 143.384 44.5409 145.395 42.5142C147.838 40.0533 148.7 40.198 148.7 43.0933Z" fill="#152A60"/>
<path d="M194.818 33.8287C190.22 35.8553 188.999 43.962 192.735 47.7258C195.105 50.1867 199.056 50.2591 201.499 47.9429C203.51 46.061 204.013 44.1791 202.073 45.9163C199.846 47.7982 198.41 47.9429 196.542 46.4229C195.177 45.3372 194.674 44.2515 194.674 42.442V39.981H198.984C203.079 39.981 203.295 39.9087 203.295 38.1715C203.295 36.4344 201.068 33.4668 199.775 33.4668C199.415 33.4668 198.697 33.322 198.122 33.1048C197.62 32.9601 196.111 33.2496 194.818 33.8287ZM198.984 34.842C199.344 35.6382 199.703 36.941 199.703 37.7372C199.703 38.9677 199.272 39.2572 197.189 39.2572C194.315 39.2572 193.884 37.882 195.824 35.0591C197.189 33.1048 197.979 33.0325 198.984 34.842Z" fill="#152A60"/>
<path d="M103.658 34.2628C104.664 34.8418 104.879 36.0723 104.879 41.4285C104.879 46.7847 104.664 48.0151 103.658 48.5942C102.652 49.1732 103.443 49.318 106.675 49.318C109.046 49.318 110.554 49.1009 110.123 48.8837C109.477 48.6666 109.189 46.4228 109.189 41.3561V34.1904H111.704H114.218V41.3561C114.218 46.4228 113.931 48.6666 113.356 48.8837C112.853 49.1009 114.218 49.318 116.373 49.318C119.39 49.3904 120.037 49.1732 119.39 48.5218C118.815 47.9428 118.528 45.2647 118.528 41.2837C118.528 36.0723 118.744 34.8418 119.821 34.2628C120.683 33.7561 118.384 33.5389 111.704 33.5389C105.023 33.5389 102.724 33.7561 103.658 34.2628Z" fill="#152A60"/>
<path d="M122.695 34.3353C123.772 35.421 123.916 53.0819 122.91 54.0953C122.479 54.5295 123.629 54.8191 126.143 54.8191C128.226 54.8191 130.022 54.6019 130.022 54.24C130.022 53.9505 129.519 53.7333 128.945 53.7333C128.226 53.7333 127.867 52.9372 127.867 51.2C127.867 48.8838 128.011 48.7391 129.519 49.3181C131.89 50.1867 134.332 49.2457 136.056 47.0019C138.14 44.1791 138.211 37.2305 136.2 34.9867C134.691 33.2495 130.166 32.8876 128.729 34.3353C128.083 34.9867 127.867 34.9867 127.867 34.3353C127.867 33.8286 126.718 33.4667 124.85 33.4667C122.479 33.4667 122.048 33.6838 122.695 34.3353ZM132.896 35.5657C133.901 37.5924 133.829 45.9886 132.68 47.5086C132.105 48.3048 131.028 48.7391 129.95 48.5219C128.298 48.3048 128.226 48.0876 128.011 42.1524C127.867 37.0133 128.011 35.8553 129.016 35.1314C130.812 33.8286 132.033 33.9733 132.896 35.5657Z" fill="#152A60"/>
<path d="M156.098 34.2629C157.104 34.8419 157.32 36.0724 157.32 41.4286C157.32 46.7848 157.104 48.0152 156.098 48.5943C154.159 49.7524 165.868 49.6076 168.095 48.4495C169.388 47.7981 169.963 46.8571 170.106 45.1924C170.322 43.1657 170.034 42.7314 168.023 41.8629C165.868 40.9219 165.796 40.8495 167.233 40.4152C169.603 39.619 170.106 36.4343 168.095 34.7695C166.874 33.7562 165.293 33.4667 160.624 33.4667C156.314 33.539 155.165 33.6838 156.098 34.2629ZM165.078 35.059C167.161 37.1581 165.581 40.7048 162.564 40.7048C161.199 40.7048 160.911 40.3429 160.911 38.6057C160.911 34.48 162.851 32.8152 165.078 35.059ZM165.509 42.5867C166.874 43.8895 166.946 45.3371 165.94 47.2914C165.006 48.9562 161.989 49.101 161.342 47.5086C160.768 45.9886 160.768 42.5143 161.414 41.9352C162.204 41.0667 164.359 41.4286 165.509 42.5867Z" fill="#152A60"/>
<path d="M206.383 34.1905C208.107 35.2762 208.179 46.1333 206.383 48.0876C205.306 49.3181 205.378 49.3905 208.035 49.3905C210.262 49.3181 210.622 49.1733 209.616 48.5943C208.538 48.0152 208.323 46.8571 208.395 41.9352V36L210.981 42.659C212.417 46.3505 213.782 49.3905 213.998 49.3905C214.213 49.3905 215.65 46.3505 217.087 42.659L219.745 36V41.9352C219.816 46.8571 219.601 48.0152 218.595 48.5943C217.59 49.1733 218.38 49.3181 221.612 49.3181C223.983 49.3181 225.491 49.1009 225.06 48.8838C224.414 48.6667 224.127 46.4229 224.127 41.4286C224.127 36.4343 224.414 34.1905 225.06 33.9733C225.491 33.7562 224.558 33.539 222.905 33.539L219.96 33.4667L217.949 38.5333C216.871 41.3562 215.794 43.6 215.578 43.6C215.291 43.6 214.285 41.4286 213.351 38.6781L211.555 33.8286L208.323 33.6114C205.809 33.4667 205.378 33.6114 206.383 34.1905Z" fill="#152A60"/>
<path d="M44.6098 38.6057C44.1069 40.1981 43.8196 41.7181 44.0351 41.8629C44.1788 42.0076 44.6816 40.8495 45.1845 39.1848C45.6873 37.5924 45.9747 36.0724 45.7592 35.9276C45.6155 35.7829 45.1126 36.941 44.6098 38.6057Z" fill="#152A60"/>
<path d="M28.8055 38.5334C28.8055 39.1124 29.0929 40.2705 29.4521 41.0667C29.8112 42.0077 30.0986 42.08 30.0986 41.4286C30.0986 40.8496 29.8112 39.6915 29.4521 38.8953C29.0929 37.9543 28.8055 37.8819 28.8055 38.5334Z" fill="#152A60"/>
<path d="M23.4183 40.8495C22.7 43.5276 22.8436 43.6 27.1538 43.4553L31.2484 43.3105L27.4411 43.0934C23.8493 42.8038 23.7057 42.7315 24.1367 40.9943C24.3522 40.0534 24.424 39.2572 24.2085 39.2572C24.0648 39.2572 23.7057 39.981 23.4183 40.8495Z" fill="#152A60"/>
<path d="M6.82432 54.8914C9.41039 58.3657 10.6316 59.3067 13.074 59.8857C14.0797 60.1752 16.8094 61.6229 19.0363 63.2876C24.6395 67.341 30.0272 69.1505 36.636 69.1505C43.6759 69.2229 48.8481 67.6305 54.5231 63.5048C57.1091 61.6952 59.4797 60.2476 59.8389 60.2476C61.7784 60.2476 65.5139 57.6419 67.1661 55.0362L69.0338 52.141L67.3816 52.6476C64.149 53.661 60.6291 55.8324 56.75 59.2343C49.2072 65.7486 40.2996 68.2819 31.5357 66.4C25.5734 65.1695 22.1971 63.5048 16.8094 58.9448C12.5712 55.3257 9.76957 53.661 6.46514 52.6476L4.74109 52.0686L6.82432 54.8914Z" fill="#152A60"/>
</svg>
