<svg width="381" height="136" viewBox="0 0 381 136" fill="none" xmlns="http://www.w3.org/2000/svg">
<path d="M30.2634 10.688C28.8165 12.5022 27.7314 14.5582 27.7314 15.5258C27.7314 16.3724 27.3697 18.0656 26.8874 19.2751C26.2846 21.0892 26.4051 21.2102 27.852 20.1217C28.8165 19.396 31.2279 18.1866 33.157 17.4609C36.2918 16.3724 36.4124 16.1305 34.1216 16.1305C32.5542 16.0096 31.3485 15.8886 31.3485 15.6467C31.3485 15.5258 31.8308 13.5907 32.4336 11.4137C33.8805 6.69686 33.5187 6.57591 30.2634 10.688Z" fill="white"/>
<path d="M91.6329 11.4135C92.3563 13.5905 92.8386 15.5256 92.8386 15.6466C92.8386 15.8885 91.6329 16.0094 90.186 16.1304C87.7747 16.1304 87.8952 16.3723 91.03 17.4608C93.0797 18.1864 95.3705 19.2749 96.2145 20.0006C99.4699 22.6614 95.7323 11.6554 92.3563 8.87371C90.7889 7.54333 90.6683 7.78521 91.6329 11.4135Z" fill="white"/>
<path d="M59.6819 17.0976C57.994 19.1536 57.8734 20.0002 58.9585 21.3306C60.7671 23.5076 59.5614 28.1035 57.15 28.1035C55.2209 28.1035 54.8592 30.0386 56.6677 31.1271C59.0791 32.5784 57.7528 33.9088 52.8095 34.7554C49.9158 35.2392 46.5399 35.723 45.2136 35.8439C43.5256 35.9649 42.9228 36.6906 43.1639 38.3838C43.405 39.7142 44.0079 40.9236 44.4902 41.1655C44.8519 41.2864 45.2136 43.7053 44.9724 46.608L44.7313 51.6876L45.5753 46.8499C46.781 40.3189 47.9867 38.5047 50.0364 40.1979C50.8804 40.9236 52.93 41.1655 54.618 40.8027C56.4266 40.3189 57.994 40.5608 58.5968 41.5283C59.5614 43.2215 59.4408 63.903 58.3557 70.0712L57.6323 74.0623H46.2987H34.8446L36.7737 77.5697C38.2205 80.4724 39.6674 81.319 44.1285 82.0446C47.1427 82.4075 51.7243 82.5284 54.3769 82.1656C58.4762 81.6818 59.0791 81.8027 59.0791 83.9797C59.0791 85.3101 58.1145 86.6405 56.6677 87.0034C55.3414 87.3662 54.618 88.0919 54.9797 88.6966C55.3414 89.3013 54.7386 89.7851 53.6535 89.7851C52.5683 89.7851 51.9655 90.2688 52.4478 90.8736C52.8095 91.4783 51.6038 92.204 49.7952 92.4458C47.3838 92.6877 46.2987 93.5343 46.0576 95.5904C45.4547 99.5816 42.9228 100.065 38.3411 97.2836C31.8304 93.1715 25.6813 86.0358 22.1848 78.4163C19.6528 72.8529 18.8088 68.7408 18.3266 59.67C17.6031 48.3012 17.6031 48.1803 16.1563 52.8971C14.1066 59.3071 14.2272 69.9502 16.2769 75.7555L17.8443 80.3514L14.2272 76.965C12.1775 75.0299 9.0427 71.2806 7.11358 68.7408L3.61707 64.0239V68.0151C3.61707 74.0623 8.07814 82.2865 13.7449 86.3986C16.3974 88.4547 23.6316 92.4458 29.5395 95.3485C54.4974 107.322 69.9304 107.322 94.6471 95.3485C113.697 86.0358 120.449 79.021 120.57 68.1361V64.0239L117.073 68.7408C115.144 71.2806 112.009 75.0299 109.959 76.965L106.342 80.3514L107.91 75.7555C109.959 69.9502 110.08 59.3071 108.03 52.8971C106.584 48.1803 106.584 48.3012 105.86 59.67C105.378 68.7408 104.534 72.8529 102.002 78.4163C98.5054 86.0358 92.3563 93.1715 85.8456 97.2836C81.2639 100.065 78.7319 99.5816 78.1291 95.5904C77.888 93.5343 76.8028 92.6877 74.3914 92.4458C72.5829 92.204 71.3772 91.4783 71.7389 90.8736C72.2212 90.2688 71.6183 89.7851 70.5332 89.7851C69.4481 89.7851 68.8452 89.3013 69.2069 88.6966C69.5686 88.0919 68.8452 87.3662 67.519 87.0034C66.0721 86.6405 65.1076 85.3101 65.1076 83.7379C65.1076 81.319 65.4693 81.198 70.7743 81.9237C79.8171 83.1331 85.3633 81.6818 87.413 77.5697L89.3421 74.0623H77.888H66.5544L65.831 70.0712C64.7459 64.0239 64.6253 43.2215 65.5899 41.5283C66.1927 40.5608 67.7601 40.3189 69.9304 40.8027C71.8595 41.1655 73.668 41.0445 74.1503 40.3189C74.6326 39.3513 75.5971 39.3513 77.4057 40.3189C79.3348 41.4074 80.1788 41.2864 80.9022 40.077C82.349 37.6581 81.505 35.9649 78.8525 35.8439C77.6468 35.723 74.2709 35.2392 71.4978 34.7554C66.4338 33.9088 65.1076 32.5784 67.519 31.1271C69.3275 30.0386 68.9658 28.1035 67.0367 28.1035C64.8664 28.1035 63.6607 23.2657 65.3487 21.0887C66.4338 19.8793 66.1927 18.9118 64.3842 17.0976C61.9728 14.6787 61.9728 14.6787 59.6819 17.0976Z" fill="white"/>
<path d="M23.511 17.2186C23.1493 17.8233 22.6671 20.2422 22.4259 22.4192C22.1848 24.7172 21.7025 27.136 21.2202 27.9827C20.1351 29.5549 32.5538 23.0239 37.256 19.3956C41.8376 15.8882 38.8234 16.8558 30.5041 21.5726L22.7876 25.8057L23.511 22.4192C23.9933 20.6051 24.4756 18.3071 24.8373 17.4605C25.3196 15.7673 24.5962 15.5254 23.511 17.2186Z" fill="white"/>
<path d="M100.434 20.4842L101.037 25.4429L93.562 21.3308C85.2427 16.8559 82.4696 16.0093 86.9307 19.3957C91.1506 22.6612 103.81 29.3131 102.846 27.8618C102.484 27.1361 101.881 24.3544 101.64 21.6937C101.399 19.0329 100.917 16.4931 100.434 16.1302C100.073 15.7674 100.073 17.7025 100.434 20.4842Z" fill="white"/>
<path d="M16.518 23.2658C15.3123 28.4664 14.9506 35.2393 15.9151 34.6345C17.0003 33.9089 18.4471 23.8705 17.7237 21.8145C17.4825 20.9678 16.8797 21.5726 16.518 23.2658Z" fill="white"/>
<path d="M106.584 26.6521C106.945 30.0385 107.789 33.9087 108.392 35.1182C109.236 36.5695 109.357 35.2391 108.875 30.5223C108.513 26.894 107.669 23.0237 107.066 22.0562C106.343 20.8468 106.101 22.419 106.584 26.6521Z" fill="white"/>
<path d="M23.3909 31.6112C18.2064 35.3604 13.7453 39.9563 14.5893 40.682C14.8304 41.0448 18.3269 38.2631 22.3057 34.7557C30.2633 27.62 30.7456 26.1687 23.3909 31.6112Z" fill="white"/>
<path d="M96.3346 29.6757C99.3489 33.5459 110.2 42.012 108.753 39.5931C107.306 36.6905 103.087 32.8202 98.2637 29.7966C95.0084 27.7406 94.7672 27.7406 96.3346 29.6757Z" fill="white"/>
<path d="M10.3693 34.3928C10.0076 36.5698 10.1282 40.3191 10.731 42.617C11.6956 46.3663 11.8161 46.0034 11.9367 38.6258C12.0573 29.9178 11.3339 28.1037 10.3693 34.3928Z" fill="white"/>
<path d="M112.371 38.3841C112.371 46.6083 112.371 46.7293 113.577 41.6496C114.3 38.2632 114.3 35.3605 113.456 33.1835C112.491 30.5228 112.371 31.3694 112.371 38.3841Z" fill="white"/>
<path d="M16.9998 44.4312C14.3473 47.3339 12.0565 50.4785 12.0565 51.3251C12.0565 52.0507 14.1061 50.3575 16.6381 47.4549C24.7163 38.0212 25.078 35.6023 16.9998 44.4312Z" fill="white"/>
<path d="M102.243 40.803C102.966 42.1334 105.498 45.157 107.91 47.4549C110.683 49.9948 111.889 50.7204 111.165 49.2691C110.442 47.9387 107.91 44.9151 105.498 42.6172C102.725 40.0773 101.52 39.3517 102.243 40.803Z" fill="white"/>
<path d="M4.82306 44.4308C4.82306 47.2125 10.6104 60.1536 11.4544 59.307C12.4189 58.4604 8.68129 47.0916 6.75217 44.4308C4.94363 42.0119 4.94363 42.0119 4.82306 44.4308Z" fill="white"/>
<path d="M78.7324 46.8498C78.7324 49.5105 78.9735 50.4781 79.2146 48.9058C79.4558 47.4545 79.4558 45.2775 79.2146 44.0681C78.8529 42.9796 78.6118 44.189 78.7324 46.8498Z" fill="white"/>
<path d="M116.711 45.6407C115.626 47.5758 114.179 51.3251 113.576 53.8649C112.491 57.7351 112.491 58.3399 113.938 57.1304C116.108 55.3163 119.725 45.6407 119.122 43.5847C118.761 42.6171 117.796 43.4637 116.711 45.6407Z" fill="white"/>
<path d="M297.324 46.8499C294.431 48.3013 293.587 48.4222 292.743 47.2128C292.26 46.2452 291.778 48.1803 291.899 51.6877V57.7349L293.707 53.5019C295.877 48.5432 297.324 47.4547 301.665 47.4547C305.885 47.4547 307.934 51.083 306.849 56.7674C306.246 59.9119 305.161 61.3633 302.268 62.5727L298.409 64.2659L302.268 64.3869C306.729 64.3869 308.658 67.0476 308.658 73.0948C308.658 78.0536 307.693 79.6258 303.594 81.1981C300.097 82.5285 292.743 81.1981 295.154 79.6258C297.204 78.4164 296.963 74.0624 294.672 73.2158C293.707 72.853 291.899 73.4577 290.814 74.5462C286.111 79.263 296.48 84.8264 305.523 82.4076C318.062 79.0211 319.63 68.8618 308.176 64.3869L304.8 63.1774L308.778 60.3957C313.601 57.1302 314.927 51.5668 311.431 48.4222C308.055 45.3986 301.424 44.6729 297.324 46.8499Z" fill="white"/>
<path d="M141.307 48.3015C142.272 49.511 146.25 56.042 150.109 62.9358C156.499 74.4255 156.981 75.6349 155.534 78.4167C153.605 81.8031 151.917 82.2869 152.761 79.0214C153.123 77.691 152.52 76.4816 151.435 76.1187C148.541 75.0302 145.889 76.4816 145.889 79.0214C145.889 81.924 150.47 83.8592 153.364 82.4078C154.57 81.8031 159.513 73.337 164.336 63.7824L173.138 46.2455L168.315 46.3664C165.542 46.4874 164.215 46.7293 165.421 47.0921C168.918 48.0597 168.797 50.9623 164.698 59.7913L160.719 68.3783L156.378 60.6379C150.591 50.1157 149.988 48.6644 152.038 47.334C153.123 46.6083 151.194 46.2455 146.612 46.2455C139.981 46.2455 139.619 46.3664 141.307 48.3015Z" fill="white"/>
<path d="M43.5256 55.6788C42.561 57.8557 42.1993 59.9118 42.4404 60.2746C42.8022 60.6375 43.5256 59.3071 44.0078 57.4929L44.8518 54.1065L46.4192 58.3395C47.3838 60.6375 48.1072 61.726 48.1072 60.7584C48.1072 59.7909 47.3838 57.372 46.6604 55.4369L45.093 51.8085L43.5256 55.6788Z" fill="white"/>
<path d="M77.8879 54.1066C77.5262 55.1951 77.1645 56.7674 77.2851 57.4931C77.2851 58.3397 77.7674 57.8559 78.2497 56.5255C79.0936 54.5904 79.8171 55.7999 81.8667 62.4518C83.193 66.9267 84.3987 70.9179 84.3987 71.1598C84.3987 71.2807 81.505 71.7645 78.1291 72.0064L71.7389 72.3692L78.7319 72.6111C82.4696 72.732 85.6044 72.3692 85.6044 71.7645C85.6044 70.0713 80.9022 55.437 79.6965 53.7438C78.9731 52.4134 78.6114 52.5344 77.8879 54.1066Z" fill="white"/>
<path d="M3.61704 56.6463C5.06388 60.3956 10.6101 66.8057 12.2981 66.8057C13.5038 66.8057 6.63128 56.6463 3.97875 54.4694C2.65249 53.3809 2.53192 53.7437 3.61704 56.6463Z" fill="white"/>
<path d="M118.52 56.1626C114.542 60.7585 110.683 66.8057 111.768 66.8057C113.577 66.8057 119.123 60.3956 120.449 56.7673C122.017 52.7761 121.655 52.6552 118.52 56.1626Z" fill="white"/>
<path d="M241.742 55.7997C235.954 58.2186 234.749 64.3868 239.933 64.3868C242.947 64.3868 244.394 61.3632 242.465 59.0652C241.38 57.8558 241.501 57.2511 242.947 56.6464C245.841 55.5579 248.373 57.1301 249.217 60.5166C250.182 64.6287 248.494 66.9266 242.827 68.8617C235.472 71.4016 232.94 76.4812 237.04 80.5933C239.451 83.0122 245.238 83.1331 247.288 80.5933C248.614 78.9001 248.855 78.9001 249.82 80.5933C251.026 82.7703 257.416 83.2541 258.622 81.319C259.104 80.5933 258.742 80.2305 257.778 80.3514C256.572 80.5933 256.09 78.0535 255.607 70.1921C255.246 63.0564 254.402 59.0652 253.196 57.8558C250.785 55.6788 244.756 54.5903 241.742 55.7997ZM249.579 72.0063C249.579 77.5697 246.806 81.198 243.912 79.3839C240.657 77.3278 240.657 74.4252 244.033 71.0387C248.132 66.9266 249.579 67.1685 249.579 72.0063Z" fill="white"/>
<path d="M326.985 56.5255C319.268 59.9119 317.219 73.4577 323.488 79.7468C327.467 83.8589 334.098 83.9798 338.198 80.1096C341.574 76.9651 342.418 73.8205 339.162 76.7232C335.425 79.8677 333.013 80.1096 329.878 77.5698C327.588 75.7556 326.744 73.9415 326.744 70.9179V66.8057H333.978C340.85 66.8057 341.212 66.6848 341.212 63.7821C341.212 60.8795 337.474 55.9208 335.304 55.9208C334.701 55.9208 333.496 55.6789 332.531 55.316C331.687 55.0742 329.155 55.5579 326.985 56.5255ZM333.978 58.2187C334.581 59.5491 335.184 61.7261 335.184 63.0565C335.184 65.1125 334.46 65.5963 330.964 65.5963C326.141 65.5963 325.417 63.2984 328.673 58.5815C330.964 55.316 332.29 55.1951 333.978 58.2187Z" fill="white"/>
<path d="M173.982 57.2511C175.669 58.2186 176.031 60.2747 176.031 69.2245C176.031 78.1744 175.669 80.2305 173.982 81.198C172.294 82.1656 173.62 82.4075 179.045 82.4075C183.024 82.4075 185.556 82.0446 184.833 81.6818C183.748 81.319 183.265 77.5697 183.265 69.1036V57.1301H187.485H191.705V69.1036C191.705 77.5697 191.223 81.319 190.258 81.6818C189.414 82.0446 191.705 82.4075 195.322 82.4075C200.386 82.5284 201.471 82.1656 200.386 81.0771C199.422 80.1095 198.939 75.6346 198.939 68.9827C198.939 60.2747 199.301 58.2186 201.11 57.2511C202.557 56.4044 198.698 56.0416 187.485 56.0416C176.272 56.0416 172.414 56.4044 173.982 57.2511Z" fill="white"/>
<path d="M205.933 57.3724C207.742 59.1866 207.983 88.6969 206.295 90.3902C205.572 91.1158 207.501 91.5996 211.721 91.5996C215.217 91.5996 218.231 91.2368 218.231 90.6321C218.231 90.1483 217.387 89.7854 216.423 89.7854C215.217 89.7854 214.614 88.4551 214.614 85.5524C214.614 81.6822 214.855 81.4403 217.387 82.4078C221.366 83.8592 225.466 82.2869 228.359 78.5376C231.856 73.8208 231.976 62.2102 228.6 58.4609C226.068 55.5582 218.473 54.9535 216.061 57.3724C214.976 58.4609 214.614 58.4609 214.614 57.3724C214.614 56.5258 212.685 55.9211 209.55 55.9211C205.572 55.9211 204.848 56.2839 205.933 57.3724ZM223.054 59.4284C224.742 62.8149 224.622 76.8444 222.692 79.3842C221.728 80.7146 219.919 81.4403 218.111 81.0775C215.338 80.7146 215.217 80.3518 214.855 70.4344C214.614 61.8473 214.855 59.9122 216.543 58.7028C219.558 56.5258 221.607 56.7677 223.054 59.4284Z" fill="white"/>
<path d="M261.997 57.2512C263.685 58.2187 264.047 60.2748 264.047 69.2247C264.047 78.1745 263.685 80.2306 261.997 81.1981C258.742 83.1332 278.395 82.8914 282.132 80.9562C284.303 79.8678 285.267 78.2955 285.508 75.5138C285.87 72.1273 285.388 71.4017 282.012 69.9503C278.395 68.378 278.274 68.2571 280.686 67.5314C284.664 66.2011 285.508 60.8795 282.132 58.0978C280.083 56.4046 277.43 55.9208 269.593 55.9208C262.359 56.0417 260.43 56.2836 261.997 57.2512ZM277.068 58.5816C280.565 62.0889 277.912 68.0152 272.848 68.0152C270.558 68.0152 270.075 67.4105 270.075 64.5078C270.075 57.614 273.331 54.8323 277.068 58.5816ZM277.792 71.1598C280.083 73.3368 280.203 75.7556 278.515 79.0211C276.948 81.8029 271.884 82.0447 270.799 79.384C269.834 76.8441 269.834 71.0388 270.919 70.0713C272.246 68.6199 275.863 69.2247 277.792 71.1598Z" fill="white"/>
<path d="M346.396 57.1305C349.29 58.9447 349.411 77.0863 346.396 80.3518C344.588 82.4079 344.708 82.5288 349.17 82.5288C352.907 82.4079 353.51 82.166 351.822 81.1984C350.014 80.2309 349.652 78.2958 349.772 70.0716V60.1541L354.113 71.281C356.524 77.4492 358.815 82.5288 359.177 82.5288C359.539 82.5288 361.95 77.4492 364.361 71.281L368.822 60.1541V70.0716C368.943 78.2958 368.581 80.2309 366.893 81.1984C365.205 82.166 366.532 82.4079 371.957 82.4079C375.936 82.4079 378.468 82.045 377.745 81.6822C376.659 81.3194 376.177 77.5701 376.177 69.2249C376.177 60.8798 376.659 57.1305 377.745 56.7677C378.468 56.4049 376.901 56.042 374.127 56.042L369.184 55.9211L365.808 64.3872C364 69.104 362.191 72.8533 361.829 72.8533C361.347 72.8533 359.659 69.2249 358.092 64.6291L355.077 56.5258L349.652 56.163C345.432 55.9211 344.708 56.163 346.396 57.1305Z" fill="white"/>
<path d="M74.874 64.5078C74.03 67.1686 73.5477 69.7084 73.9094 69.9503C74.1505 70.1922 74.9945 68.2571 75.8385 65.4754C76.6825 62.8146 77.1648 60.2748 76.8031 60.0329C76.5619 59.791 75.718 61.7261 74.874 64.5078Z" fill="white"/>
<path d="M48.3484 64.3871C48.3484 65.3547 48.8307 67.2898 49.4335 68.6202C50.0364 70.1925 50.5186 70.3134 50.5186 69.2249C50.5186 68.2574 50.0364 66.3222 49.4335 64.9919C48.8307 63.4196 48.3484 63.2986 48.3484 64.3871Z" fill="white"/>
<path d="M39.3056 68.2573C38.0999 72.7322 38.3411 72.8532 45.5753 72.6113L52.4477 72.3694L46.0575 72.0066C40.0291 71.5228 39.7879 71.4018 40.5113 68.4992C40.873 66.9269 40.9936 65.5965 40.6319 65.5965C40.3908 65.5965 39.7879 66.806 39.3056 68.2573Z" fill="white"/>
<path d="M11.4543 91.7203C15.7949 97.5257 17.8445 99.0979 21.9439 100.066C23.6319 100.549 28.2135 102.968 31.9512 105.75C41.3556 112.523 50.3983 115.546 61.4907 115.546C73.3066 115.667 81.9876 113.007 91.5126 106.113C95.8531 103.089 99.8319 100.67 100.435 100.67C103.69 100.67 109.96 96.3162 112.733 91.9622L115.868 87.1245L113.095 87.9711C107.669 89.6643 101.761 93.2926 95.2502 98.977C82.5904 109.862 67.6398 114.095 52.9303 110.95C42.923 108.894 37.2562 106.113 28.2135 98.4932C21.0999 92.446 16.3977 89.6643 10.8515 87.9711L7.95782 87.0035L11.4543 91.7203Z" fill="white"/>
</svg>
