<svg width="90" height="115" viewBox="0 0 90 115" fill="none" xmlns="http://www.w3.org/2000/svg">
<path fill-rule="evenodd" clip-rule="evenodd" d="M20.7991 2.292C19.7 3.69883 18.8756 5.29323 18.8756 6.04354C18.8756 6.70006 18.6008 8.0131 18.2344 8.95099C17.7765 10.3578 17.8681 10.4516 18.9672 9.60751C19.7 9.04478 21.5319 8.10689 22.9974 7.54416C25.3789 6.70006 25.4705 6.51249 23.7302 6.51249C22.5394 6.4187 21.6235 6.32491 21.6235 6.13733C21.6235 6.04354 21.9899 4.54293 22.4478 2.85473C23.547 -0.80302 23.2722 -0.896809 20.7991 2.292ZM67.4212 2.85464C67.9708 4.54283 68.3372 6.04345 68.3372 6.13724C68.3372 6.32481 67.4212 6.4186 66.3221 6.51239C64.4902 6.51239 64.5818 6.69997 66.9632 7.54406C68.5204 8.1068 70.2607 8.95089 70.9019 9.51362C73.3749 11.577 70.5355 3.04221 67.9708 0.885078C66.7801 -0.146596 66.6885 0.0409812 67.4212 2.85464ZM42.5989 10.5454C41.7745 9.5137 41.8661 8.85718 43.1485 7.26277C44.0117 6.33239 44.4467 5.86347 44.8895 5.85604C45.3395 5.84848 45.7974 6.31738 46.7207 7.26275L46.7207 7.26277C48.0946 8.6696 48.2778 9.41991 47.4535 10.3578C46.1711 12.046 47.0871 15.7975 48.7358 15.7975C50.2013 15.7975 50.4761 17.2981 49.1022 18.1422C47.2703 19.2677 48.2778 20.2994 52.1248 20.9559C54.2315 21.3311 56.7962 21.7062 57.7122 21.8C59.7273 21.8938 60.3685 23.2068 59.2693 25.0826C58.7197 26.0205 58.0786 26.1143 56.613 25.2702C55.2391 24.5199 54.5063 24.5199 54.1399 25.2702C53.7736 25.8329 52.3996 25.9267 50.9341 25.6453C49.2854 25.2702 48.0946 25.4578 47.6367 26.2081C46.9039 27.5211 46.9955 43.6527 47.8199 48.3422L47.9299 48.9617C48.1842 50.3938 49.4291 51.4372 50.8837 51.4372H56.9794H62.5914C63.9876 51.4372 64.8777 52.928 64.2155 54.1571C62.6583 57.3459 58.4449 58.4713 51.5753 57.5334C47.5451 56.9707 47.2703 57.0645 47.2703 58.9403C47.2703 60.1595 48.003 61.1912 49.1022 61.4726C50.1097 61.7539 50.6593 62.3167 50.3845 62.7856C50.1097 63.2545 50.5677 63.6297 51.3921 63.6297C52.2164 63.6297 52.6744 64.0048 52.308 64.4738C52.0332 64.9427 52.9492 65.5055 54.3231 65.693C56.1551 65.8806 56.9794 66.5371 57.1626 68.1315C57.6206 71.2266 59.5441 71.6017 63.0247 69.4446C67.9709 66.2558 72.6423 60.7222 75.2985 54.8136C77.222 50.4993 77.8632 47.3105 78.2296 40.2763L78.2368 40.1609C78.7792 31.4595 78.784 31.3825 79.8783 35.0242C81.4354 39.995 81.3438 48.2484 79.7867 52.7502C79.479 53.6713 80.6105 54.389 81.3125 53.718L81.3438 53.6881C82.901 52.1875 85.2825 49.28 86.748 47.3105L87.5305 46.2329C88.1201 45.421 89.4043 45.8381 89.4043 46.8415C89.3127 55.2825 84.1833 60.7222 69.7112 67.944C50.9341 77.229 39.2099 77.229 20.2496 67.944C15.7614 65.693 10.2657 62.598 8.25055 61.0036C3.94556 57.8148 0.556519 51.4372 0.556519 46.7478C0.556519 45.7738 1.80288 45.369 2.37517 46.1571L3.21279 47.3105C4.67832 49.28 7.05981 52.1875 8.61693 53.6881L8.64824 53.718C9.3503 54.389 10.4818 53.6713 10.1741 52.7502C8.61693 48.2484 8.52534 39.995 10.0825 35.0242C11.1768 31.3825 11.1816 31.4595 11.724 40.1609L11.7312 40.2763C12.0976 47.3105 12.7387 50.4993 14.6622 54.8136C17.3185 60.7222 21.9899 66.2558 26.9361 69.4446C30.4167 71.6017 32.3402 71.2266 32.7982 68.1315C32.9814 66.5371 33.8057 65.8806 35.6376 65.693C37.0116 65.5055 37.9275 64.9427 37.6527 64.4738C37.2864 64.0048 37.7443 63.6297 38.5687 63.6297C39.3931 63.6297 39.851 63.2545 39.5762 62.7856C39.3015 62.3167 39.851 61.7539 40.8586 61.4726C41.9577 61.1912 42.6905 60.1595 42.6905 59.1278C42.6905 57.4396 42.2325 57.3459 39.1183 57.721C37.1032 58.0024 33.6225 57.9086 31.3326 57.6272C27.9436 57.0645 26.8445 56.408 25.7453 54.1571C25.0831 52.928 25.9732 51.4372 27.3694 51.4372H32.9814H39.0771C40.5316 51.4372 41.7766 50.3938 42.0309 48.9617L42.1409 48.3422C42.9653 43.5589 43.0569 27.5211 42.3241 26.2081C41.8661 25.4578 40.6754 25.2702 39.3015 25.6453C38.0191 25.9267 36.462 25.7391 35.8208 25.1764C34.2637 23.8633 33.3477 25.2702 32.4318 30.3348L31.7906 34.0863L31.9738 30.1472C32.1283 28.2484 31.957 26.6167 31.7347 26.0962C31.678 25.9635 31.538 25.8975 31.4376 25.7938C31.1098 25.4556 30.7556 24.6465 30.5999 23.7696C30.4167 22.4565 30.8747 21.8938 32.157 21.8C33.1646 21.7062 35.7292 21.3311 37.9275 20.9559C41.6829 20.2994 42.6905 19.2677 40.8586 18.1422C39.4846 17.2981 39.7594 15.7975 41.225 15.7975C43.0569 15.7975 43.9728 12.2336 42.5989 10.5454ZM15.6696 7.35638C15.3949 7.82532 15.0285 9.70109 14.8453 11.3893C14.6621 13.1713 14.2957 15.047 13.9293 15.7036C13.105 16.9228 22.5393 11.8582 26.1115 9.04457C29.5922 6.32471 27.3023 7.07501 20.9822 10.7328L17.461 12.7045C16.5469 13.2164 15.455 12.4147 15.6696 11.3893C15.7926 10.9172 15.9155 10.4029 16.035 9.903L16.0351 9.90279L16.0351 9.90256L16.0352 9.90236L16.0352 9.90226C16.2717 8.91278 16.4947 7.98006 16.6772 7.54396C17.0436 6.23092 16.494 6.04334 15.6696 7.35638ZM71.1891 11.8379C72.5931 12.6263 74.2982 11.4875 74.1077 9.88861C73.8953 8.22099 73.8471 6.94573 73.9631 6.58282C74.0065 6.44719 74.1684 6.55535 74.2373 6.67996C74.5581 7.26019 74.8621 9.00687 75.0237 10.8265C75.2069 12.8898 75.6649 15.047 75.9396 15.6097C76.6724 16.7352 67.0549 11.5768 63.849 9.04451C60.46 6.41843 62.5667 7.07495 68.8868 10.5451L71.1891 11.8379ZM10.3572 12.046C9.44121 16.0789 9.16642 21.3311 9.89919 20.8621C10.7235 20.2994 11.8227 12.5149 11.2731 10.9205C11.0899 10.264 10.632 10.733 10.3572 12.046ZM80.153 21.237C79.6951 20.2991 79.0539 17.2979 78.7791 14.6718C78.4127 11.3892 78.5959 10.1699 79.1455 11.1078C79.6035 11.8581 80.2446 14.8594 80.5194 17.673C80.8858 21.3308 80.7942 22.3624 80.153 21.237ZM15.5781 18.5174C12.1745 21.0298 9.18139 24.0326 8.84469 25.1652C8.76668 25.4276 9.03017 25.5841 9.26878 25.4499C10.1307 24.9652 12.3238 23.1424 14.7537 20.9559C20.799 15.4224 21.1654 14.2969 15.5781 18.5174ZM80.4279 24.7073C81.5271 26.5831 73.2835 20.0179 70.9936 17.0166C69.8028 15.516 69.986 15.516 72.4591 17.1104C76.1229 19.4551 79.3288 22.4564 80.4279 24.7073ZM5.68582 20.6742C5.41103 22.3624 5.50263 25.2699 5.9606 27.0519C6.69337 29.9593 6.78497 29.6779 6.87656 23.9568C6.96816 17.2041 6.41858 15.7972 5.68582 20.6742ZM84.0916 26.3015C83.1757 30.2407 83.1757 30.1469 83.1757 23.7693C83.1757 18.3295 83.2673 17.673 84 19.7363C84.6412 21.4245 84.6412 23.6755 84.0916 26.3015ZM10.7237 28.4589C8.70858 30.7099 6.96826 33.1484 6.96826 33.8049C6.96826 34.3676 8.52539 33.0546 10.4489 30.8037C16.5858 23.4881 16.8606 21.6124 10.7237 28.4589ZM79.7866 30.8033C77.9547 29.0214 76.0312 26.6766 75.4816 25.645C74.9321 24.5195 75.848 25.0822 77.9547 27.0518C79.7866 28.8338 81.7101 31.1785 82.2597 32.2102C82.8093 33.3356 81.8933 32.7729 79.7866 30.8033ZM1.47241 28.4589C1.47241 30.616 5.869 40.6514 6.51017 39.9949C7.24294 39.3383 4.40347 30.5222 2.93794 28.4589C2.21217 27.468 1.86979 27.0006 1.69476 27.0565C1.53845 27.1065 1.51562 27.5739 1.47241 28.4589ZM57.9868 31.9291C57.8036 33.1484 57.6204 32.3981 57.6204 30.3347C57.5288 28.2714 57.712 27.3335 57.9868 28.1776C58.17 29.1155 58.17 30.8037 57.9868 31.9291ZM86.4731 29.3968C85.6488 30.8974 84.5496 33.8049 84.0916 35.7744C83.2673 38.7757 83.2673 39.2446 84.3664 38.3067C86.0152 36.8999 88.763 29.3968 88.305 27.8024C88.0303 27.0521 87.2975 27.7086 86.4731 29.3968ZM30.3115 40.7154C30.1632 40.8445 29.9987 40.6543 29.9955 40.4578C29.9857 39.8645 30.2787 38.5539 30.8746 37.1812L30.9386 37.0198C31.3517 35.9786 32.8195 35.962 33.256 36.9936C33.8056 38.4942 34.3552 40.37 34.3552 41.1203C34.3552 41.8706 33.8056 41.0265 33.0729 39.2445L32.8039 38.5031C32.528 37.7424 31.4329 37.8019 31.2409 38.588C30.9696 39.6299 30.5977 40.4661 30.3115 40.7154ZM56.9792 35.9618C56.739 36.6997 56.4988 37.7242 56.5034 38.3463C56.5045 38.5077 56.498 38.6752 56.5489 38.8284C56.6407 39.1046 56.9474 38.7011 57.254 37.8376C57.8952 36.337 58.4448 37.2749 60.0019 42.4333C60.2084 43.1446 60.4111 43.8401 60.6028 44.4981L60.6028 44.4982C61.3465 47.0501 61.9254 49.0369 61.9254 49.186C61.9254 49.2798 59.7271 49.655 57.1624 49.8426L52.3079 50.1239L57.6204 50.3115C60.4599 50.4053 62.8414 50.1239 62.8414 49.655C62.8414 48.3419 59.2691 36.9935 58.3532 35.6805C57.8036 34.6488 57.5288 34.7426 56.9792 35.9618ZM7.15133 45.8098C5.86899 45.8098 1.65559 40.839 0.556443 37.9315C-0.267917 35.6806 -0.176322 35.3992 0.83123 36.2433C2.84633 37.9315 8.06728 45.8098 7.15133 45.8098ZM87.847 37.5564C84.8244 41.1203 81.8933 45.8098 82.7177 45.8098C84.0916 45.8098 88.305 40.839 89.3125 38.0253C90.5033 34.9303 90.2285 34.8365 87.847 37.5564ZM54.1728 48.0884C54.065 48.255 53.8803 48.1698 53.8677 47.9718C53.8269 47.3287 54.1669 45.7094 54.6895 44.0277C55.1703 42.41 55.6512 41.1615 55.9388 40.7174C56.0467 40.5508 56.2314 40.636 56.244 40.834C56.2848 41.4771 55.9448 43.0964 55.4222 44.7781C54.9414 46.3958 54.4605 47.6443 54.1728 48.0884ZM34.5383 43.9337C34.5383 44.6841 34.9047 46.1847 35.3627 47.2163C35.8207 48.4356 36.187 48.5294 36.187 47.6853C36.187 46.935 35.8207 45.4344 35.3627 44.4027C34.9047 43.1834 34.5383 43.0896 34.5383 43.9337ZM32.4317 50.3114C26.9359 50.499 26.7527 50.4052 27.6687 46.935C28.0351 45.8096 28.493 44.8717 28.6762 44.8717C28.951 44.8717 28.8594 45.9034 28.5846 47.1226C28.0351 49.3735 28.2183 49.4673 32.798 49.8425L37.6526 50.1238L32.4317 50.3114ZM6.5102 65.1299C9.80764 69.6318 11.3648 70.851 14.479 71.6013C15.7614 71.9765 19.242 73.8523 22.0815 76.0094C25.7158 78.6812 29.2791 80.6006 33.0124 81.8417C34.0428 82.1842 34.8563 83.0047 35.1171 84.0587L42.0878 112.231C42.8398 115.27 47.1602 115.27 47.9122 112.231L54.8786 84.076C55.1398 83.0203 55.9557 82.1997 56.9872 81.855C60.5109 80.6774 63.846 78.8645 67.3297 76.2908C70.6271 73.9461 73.6498 72.0703 74.1078 72.0703C76.5808 72.0703 81.3438 68.6939 83.4505 65.3175L84.6494 63.4289C85.0533 62.7927 84.4448 61.9983 83.7253 62.2225C79.6035 63.5355 75.1153 66.3492 70.1691 70.7572C60.5516 79.1982 49.1938 82.4808 38.0191 80.0423C30.4167 78.4479 26.1117 76.2908 19.242 70.3821C13.8378 65.6927 10.2656 63.5355 6.05222 62.2225C5.37219 61.9904 4.7966 62.7703 5.21883 63.3517L6.5102 65.1299Z" fill="#152A60"/>
</svg>
